<svg width="34" height="14" viewBox="0 0 34 14" fill="none" xmlns="http://www.w3.org/2000/svg">
<path d="M3.98428 12.4566L1.32257 9.79493C1.07447 9.54884 0.880502 9.25364 0.753089 8.92824C0.625678 8.60285 0.56763 8.25443 0.582664 7.9053C0.597699 7.55618 0.685482 7.21404 0.840396 6.9008C0.995309 6.58756 1.21394 6.31013 1.48227 6.08628C4.50911 3.65276 8.06456 1.96315 11.8629 1.15324C15.3689 0.371725 19.0039 0.371726 22.5098 1.15324C26.3239 1.96841 29.8923 3.67055 32.926 6.12177C33.1935 6.34494 33.4116 6.62138 33.5664 6.93348C33.7213 7.24557 33.8094 7.58649 33.8253 7.93452C33.8411 8.28255 33.7844 8.63007 33.6585 8.95495C33.5327 9.27984 33.3407 9.57496 33.0945 9.82155L30.4328 12.4833C30.0065 12.9181 29.4366 13.183 28.8293 13.2287C28.2221 13.2744 27.6189 13.0978 27.1323 12.7317C26.1682 11.9922 25.1234 11.3642 24.0181 10.8596C23.5812 10.6614 23.2102 10.3421 22.9492 9.93957C22.6881 9.53701 22.548 9.06806 22.5453 8.58829L22.5453 6.3347C19.061 5.3765 15.3827 5.3765 11.8984 6.3347V8.58828C11.8958 9.06806 11.7556 9.53701 11.4946 9.93957C11.2335 10.3421 10.8626 10.6614 10.4256 10.8596C9.32029 11.3642 8.27557 11.9922 7.31142 12.7317C6.81963 13.1019 6.20893 13.2784 5.59548 13.2277C4.98203 13.177 4.40861 12.9026 3.98428 12.4566Z" fill="white"/>
</svg>
