<svg width="20" height="30" viewBox="0 0 20 30" fill="none" xmlns="http://www.w3.org/2000/svg">
<path d="M16.2715 6.78577V12.5559H4.69995V6.78577C4.69995 3.58878 7.28872 1 10.4857 1C12.092 1 13.5267 1.65499 14.5794 2.69206C15.6243 3.74473 16.2715 5.17947 16.2715 6.78577V6.78577Z" fill="white"/>
<path d="M19.1293 12.5557C18.6536 12.5557 18.2715 12.9377 18.2715 13.4134V15.1834C18.2715 19.3239 15.1525 22.942 11.0198 23.2149C6.48946 23.519 2.71547 19.9165 2.71547 15.4563V13.4134C2.71547 12.9377 2.33338 12.5557 1.85773 12.5557C1.38208 12.5557 1 12.9377 1 13.4134V15.1834C1 20.1193 4.65706 24.4469 9.5695 24.9069C9.5773 24.9069 9.59287 24.9069 9.60067 24.9069V28.2287H8.03339C7.54214 28.2287 7.15226 28.6264 7.15226 29.1098C7.15226 29.5933 7.54994 29.9909 8.03339 29.9909H12.7587C13.2499 29.9909 13.6398 29.5933 13.6398 29.1098C13.6398 28.6264 13.2421 28.2287 12.7587 28.2287H11.3707V24.8992C16.1896 24.4469 19.9714 20.3922 19.9714 15.4641V13.4212C19.9714 12.9455 19.5893 12.5635 19.1137 12.5635L19.1293 12.5557Z" fill="white"/>
<path d="M4.71167 12.9312H16.2832V15.6856C16.2832 18.8578 13.6944 21.4266 10.4974 21.4266C7.30044 21.4266 4.71167 18.8578 4.71167 15.6856V12.9312V12.9312Z" fill="white"/>
<line x1="0.581769" y1="29.726" x2="19.5818" y2="0.725986" stroke="white"/>
</svg>
