<svg width="20" height="30" viewBox="0 0 20 30" fill="none" xmlns="http://www.w3.org/2000/svg">
<path d="M15.8374 6.62463V12.3948H4.26587V6.62463C4.26587 3.42765 6.85463 0.838867 10.0516 0.838867C11.6579 0.838867 13.0927 1.49386 14.1453 2.53093C15.1902 3.5836 15.8374 5.01834 15.8374 6.62463V6.62463Z" fill="white"/>
<path d="M18.6952 12.3945C18.2195 12.3945 17.8374 12.7766 17.8374 13.2523V15.0223C17.8374 19.1628 14.7184 22.7808 10.5857 23.0538C6.05538 23.3579 2.28138 19.7554 2.28138 15.2952V13.2523C2.28138 12.7766 1.8993 12.3945 1.42365 12.3945C0.948002 12.3945 0.565918 12.7766 0.565918 13.2523V15.0223C0.565918 19.9581 4.22297 24.2858 9.13542 24.7458C9.14321 24.7458 9.15879 24.7458 9.16659 24.7458V28.0676H7.5993C7.10806 28.0676 6.71818 28.4652 6.71818 28.9487C6.71818 29.4321 7.11586 29.8298 7.5993 29.8298H12.3246C12.8158 29.8298 13.2057 29.4321 13.2057 28.9487C13.2057 28.4652 12.8081 28.0676 12.3246 28.0676H10.9366V24.738C15.7555 24.2858 19.5373 20.231 19.5373 15.303V13.2601C19.5373 12.7844 19.1552 12.4023 18.6796 12.4023L18.6952 12.3945Z" fill="white"/>
<path d="M4.27759 12.77H15.8491V15.5245C15.8491 18.6967 13.2603 21.2654 10.0633 21.2654C6.86635 21.2654 4.27759 18.6967 4.27759 15.5245V12.77V12.77Z" fill="white"/>
</svg>
